<?xml version="1.0" encoding="iso-8859-1"?>
<!-- Generator: Adobe Illustrator 19.0.0, SVG Export Plug-In . SVG Version: 6.00 Build 0)  -->
<svg version="1.1" id="Layer_1" xmlns="http://www.w3.org/2000/svg" xmlns:xlink="http://www.w3.org/1999/xlink" x="0px" y="0px"
	 viewBox="0 0 511.999 511.999" style="enable-background:new 0 0 511.999 511.999;" xml:space="preserve">
<path style="fill:#FFE5B1;" d="M381.736,127.7l45.649,65.702l-61.976,43.233c-7.678,5.352-17.366,7.486-26.602,5.849l-105.3-18.743
	c-4.189-0.757-7.847-3.082-10.275-6.583c-1.716-2.439-2.653-5.262-2.823-8.175c-0.135-7.204,3.862-11.528,5.589-13.052
	c0.135-0.113,1.027-0.813,1.027-0.813c3.511-2.518,7.791-3.5,12.047-2.732l66.481,11.844c6.142,1.095,12.002-3.003,13.098-9.146
	c1.095-6.131-2.992-12.002-9.134-13.086l-66.481-11.844c-10.196-1.818-20.437,0.452-28.894,6.413
	c-0.034,0.023-0.079,0.056-0.124,0.079c-0.034,0.034-0.068,0.045-0.113,0.079l-91.558,63.873c-2.292,1.603-4.968,2.45-7.757,2.45
	c-4.46,0-8.649-2.179-11.189-5.837c-4.302-6.154-2.778-14.667,3.376-18.969l125.205-87.358c2.529-1.761,5.589-2.428,8.615-1.886
	l106.35,18.935c2.947,0.519,5.984-0.147,8.446-1.863l24.027-16.767h0.011L381.736,127.7z"/>
<path d="M509.968,179.932c3.568,5.115,2.315,12.149-2.8,15.717l-29.492,20.572c-4.787,3.342-10.365,5.092-16.09,5.092
	c-1.671,0-3.353-0.158-5.036-0.452c-6.323-1.129-11.923-4.302-16.112-9.033l-62.1,43.323c-9.868,6.887-21.363,10.478-33.162,10.478
	c-3.432,0-6.876-0.305-10.331-0.915l-105.3-18.743c-10.139-1.818-18.958-7.452-24.84-15.898c-3.195-4.573-5.307-9.676-6.289-15.017
	l-63.128,44.046c-6.086,4.268-13.256,6.526-20.696,6.526c-11.833,0-22.943-5.792-29.718-15.502
	c-11.415-16.361-7.384-38.965,8.976-50.403l125.217-87.358c7.475-5.216,16.53-7.204,25.495-5.6l101.743,18.111l20.2-14.091h0.011
	l2.495-1.75c-6.662-12.431-3.094-28.205,8.728-36.459l29.289-20.437c5.115-3.568,12.149-2.315,15.728,2.8
	c3.568,5.115,2.315,12.149-2.8,15.717h-0.011l-6.458-9.259l-29.289,20.437c-7.655,5.341-9.552,15.875-4.223,23.553l4.573,6.571
	l58.532,84.253l4.528,6.515c5.341,7.7,15.92,9.597,23.598,4.234l29.492-20.572l-6.458-9.259
	C499.354,173.564,506.4,174.817,509.968,179.932z M427.385,193.402L381.736,127.7l-2.303,1.603h-0.011l-24.027,16.767
	c-2.461,1.716-5.499,2.382-8.446,1.863l-106.35-18.935c-3.026-0.542-6.086,0.124-8.615,1.886l-125.205,87.358
	c-6.154,4.302-7.678,12.815-3.376,18.969c2.54,3.658,6.729,5.837,11.189,5.837c2.789,0,5.465-0.847,7.757-2.45l91.558-63.873
	c0.045-0.034,0.079-0.045,0.113-0.079c0.045-0.023,0.09-0.056,0.124-0.079c8.457-5.962,18.698-8.231,28.894-6.413l66.481,11.844
	c6.142,1.084,10.23,6.955,9.134,13.086c-1.095,6.142-6.955,10.241-13.098,9.146l-66.481-11.844
	c-4.257-0.768-8.536,0.215-12.047,2.732c0,0-0.892,0.7-1.027,0.813c-1.728,1.524-5.725,5.849-5.589,13.052
	c0.169,2.913,1.107,5.736,2.823,8.175c2.428,3.5,6.086,5.826,10.275,6.583l105.3,18.743c9.236,1.637,18.924-0.497,26.602-5.849
	L427.385,193.402z"/>
<path style="fill:#F85A55;" d="M419.945,70.658l74.295,106.474l-29.492,20.572c-1.671,1.163-3.353,1.084-4.223,0.926
	c-0.858-0.147-2.473-0.666-3.636-2.349l-3.308-4.742c-0.282-0.655-0.644-1.298-1.061-1.908l-58.702-84.129
	c-0.011,0-0.011,0-0.011-0.011l-4.55-6.537c-1.773-2.552-1.14-6.075,1.411-7.859L419.945,70.658z"/>
<path d="M472.696,347.987c6.244,0,11.291,5.058,11.291,11.291c0,6.233-5.047,11.291-11.291,11.291H343.945
	c-5.634,51.284-49.217,91.321-101.991,91.321c-52.751,0-96.334-40.038-101.969-91.321H11.291C5.058,370.569,0,365.511,0,359.278
	c0-6.233,5.058-11.291,11.291-11.291h139.353c6.244,0,11.291,5.058,11.291,11.291c0,44.125,35.905,80.03,80.019,80.03
	c44.136,0,80.03-35.905,80.03-80.03c0-6.233,5.058-11.291,11.291-11.291c0.011,0,0.023,0,0.034,0s0.023,0,0.034,0H472.696z"/>
<polygon points="384.548,111.961 443.249,196.09 443.08,196.214 "/>
<path d="M443.08,196.214l0.169-0.124l-58.702-84.129l-4.573-6.571c-5.329-7.678-3.432-18.212,4.223-23.553L413.486,61.4l6.458,9.259
	l-29.277,20.437c-2.552,1.784-3.184,5.307-1.411,7.859l4.55,6.537c0,0.011,0,0.011,0.011,0.011l58.702,84.129
	c0.418,0.61,0.779,1.253,1.061,1.908l3.308,4.742c1.163,1.682,2.778,2.202,3.636,2.349c0.869,0.158,2.552,0.237,4.223-0.926
	l29.492-20.572l6.458,9.259l-29.492,20.572c-7.678,5.363-18.257,3.466-23.598-4.234L443.08,196.214z"/>
<path d="M296.083,307.983c4.403,4.403,4.403,11.562,0,15.965l-9.563,9.563c-2.213,2.202-5.104,3.308-7.983,3.308
	c-2.891,0-5.781-1.107-7.994-3.308c-4.403-4.403-4.403-11.551,0-15.965l9.563-9.563
	C284.521,303.568,291.668,303.568,296.083,307.983z"/>
<path d="M244.009,368.536c4.403,4.403,4.403,11.562,0,15.965c-2.213,2.202-5.104,3.308-7.994,3.308c-2.879,0-5.77-1.107-7.983-3.308
	l-9.563-9.563c-4.403-4.403-4.403-11.562,0-15.965c4.415-4.415,11.562-4.415,15.977,0L244.009,368.536z"/>
<path d="M218.333,300.712c4.403,4.403,4.403,11.562,0,15.965c-2.213,2.202-5.104,3.308-7.994,3.308c-2.89,0-5.77-1.107-7.983-3.308
	l-9.552-9.552c-4.403-4.403-4.403-11.562,0-15.965c4.415-4.415,11.562-4.415,15.977,0L218.333,300.712z"/>
<g>
</g>
<g>
</g>
<g>
</g>
<g>
</g>
<g>
</g>
<g>
</g>
<g>
</g>
<g>
</g>
<g>
</g>
<g>
</g>
<g>
</g>
<g>
</g>
<g>
</g>
<g>
</g>
<g>
</g>
</svg>
